# This file uses centimeters as units for non-parametric coordinates.

mtllib plane.mtl
g default
v -0.500000 -0.000000 0.500000
v 0.000000 -0.000000 0.500000
v 0.500000 -0.000000 0.500000
v -0.500000 0.000000 0.000000
v 0.000000 0.000000 0.000000
v 0.500000 0.000000 0.000000
v -0.500000 0.000000 -0.500000
v 0.000000 0.000000 -0.500000
v 0.500000 0.000000 -0.500000
vt 0.001992 0.001992
vt 0.500000 0.001992
vt 0.001992 0.500000
vt 0.500000 0.500000
vt 0.998008 0.001992
vt 0.001992 0.998008
vt 0.998008 0.500000
vt 0.500000 0.998008
vt 0.998008 0.998008
vn 0.000000 1.000000 0.000000
vn 0.000000 1.000000 0.000000
vn 0.000000 1.000000 0.000000
vn 0.000000 1.000000 0.000000
vn 0.000000 1.000000 0.000000
vn 0.000000 1.000000 0.000000
vn 0.000000 1.000000 0.000000
vn 0.000000 1.000000 0.000000
vn 0.000000 1.000000 0.000000
s 1
g pPlane1
usemtl initialShadingGroup
f 1/1/1 2/2/2 4/3/3
f 4/3/3 2/2/2 5/4/4
f 2/2/2 3/5/5 5/4/4
f 5/4/4 3/5/5 6/7/6
f 4/3/3 5/4/4 7/6/7
f 7/6/7 5/4/4 8/8/8
f 5/4/4 6/7/6 8/8/8
f 8/8/8 6/7/6 9/9/9
