# This file uses centimeters as units for non-parametric coordinates.

mtllib simple.mtl
g default
v -0.500000 -0.000000 0.500000
v 0.344919 -0.000000 0.344781
v -0.336483 0.000000 -0.333513
v 0.500000 0.000000 -0.500000
vt 0.000000 0.000000
vt 0.844901 0.155236
vt 0.163571 0.833460
vt 1.000000 1.000000
vn 0.000000 1.000000 0.000000
vn 0.000000 1.000000 0.000000
vn 0.000000 1.000000 0.000000
vn 0.000000 1.000000 0.000000
g pPlane1
usemtl initialShadingGroup
f 1/1/1 2/2/2 3/3/3
f 3/3/3 2/2/2 4/4/4
